HIERARCHY
ROOT newVegas:Hips
{
	OFFSET 0.000000 96.479958 0.000000
	CHANNELS 6 Xposition Yposition Zposition Xrotation Yrotation Zrotation
	JOINT newVegas:Pelvis
	{
		OFFSET 0.000000 0.000000 0.000000
		CHANNELS 3 Xrotation Yrotation Zrotation
		JOINT newVegas:LeftUpLeg
		{
			OFFSET 18.735201 -5.666702 -4.541200
			CHANNELS 3 Xrotation Yrotation Zrotation
			JOINT newVegas:LeftLeg
			{
				OFFSET -0.021200 -31.938179 0.493100
				CHANNELS 3 Xrotation Yrotation Zrotation
				JOINT newVegas:LeftFoot
				{
					OFFSET 0.021200 -31.938179 -4.336299
					CHANNELS 3 Xrotation Yrotation Zrotation
					JOINT newVegas:LeftToeBase
					{
						OFFSET 0.943001 -26.722000 15.023500
						CHANNELS 3 Xrotation Yrotation Zrotation
						End Site
						{
							OFFSET 0.000000 30.670183 0.000000
						}
					}
				}
				JOINT newVegas:Left_PantLeg
				{
					OFFSET 0.663870 -9.044666 -1.108900
					CHANNELS 3 Xrotation Yrotation Zrotation
					End Site
					{
						OFFSET 1.415995 20.635357 0.000000
					}
				}
			}
		}
		JOINT newVegas:RightUpLeg
		{
			OFFSET -18.735201 -5.666702 -4.541200
			CHANNELS 3 Xrotation Yrotation Zrotation
			JOINT newVegas:RightLeg
			{
				OFFSET 0.018946 -31.938133 0.493100
				CHANNELS 3 Xrotation Yrotation Zrotation
				JOINT newVegas:RightFoot
				{
					OFFSET -0.018946 -31.938126 -4.336299
					CHANNELS 3 Xrotation Yrotation Zrotation
					JOINT newVegas:RightToeBase
					{
						OFFSET -0.943001 -26.722004 15.023500
						CHANNELS 3 Xrotation Yrotation Zrotation
						End Site
						{
							OFFSET 0.000000 30.670187 0.000000
						}
					}
				}
				JOINT newVegas:Right_PantLeg
				{
					OFFSET -0.661674 -9.044716 -1.108900
					CHANNELS 3 Xrotation Yrotation Zrotation
					End Site
					{
						OFFSET -1.415958 20.635269 0.000000
					}
				}
			}
		}
	}
	JOINT newVegas:Spine
	{
		OFFSET 0.000000 10.199997 -0.299500
		CHANNELS 3 Xrotation Yrotation Zrotation
		JOINT newVegas:Spine1
		{
			OFFSET 0.000000 11.900002 -1.516600
			CHANNELS 3 Xrotation Yrotation Zrotation
			JOINT newVegas:Spine2
			{
				OFFSET 0.000000 13.600006 -2.842500
				CHANNELS 3 Xrotation Yrotation Zrotation
				JOINT newVegas:Neck
				{
					OFFSET 0.000000 9.624100 -2.890100
					CHANNELS 3 Xrotation Yrotation Zrotation
					JOINT newVegas:Head
					{
						OFFSET 0.000000 14.068802 -1.351900
						CHANNELS 3 Xrotation Yrotation Zrotation
						JOINT newVegas:Hair_Back
						{
							OFFSET 0.000000 3.231903 -17.524799
							CHANNELS 3 Xrotation Yrotation Zrotation
							End Site
							{
								OFFSET 0.000000 19.849884 0.000000
							}
						}
						JOINT newVegas:Hair_Front
						{
							OFFSET 0.000000 31.260406 4.573800
							CHANNELS 3 Xrotation Yrotation Zrotation
							JOINT newVegas:Hair_Front1
							{
								OFFSET 0.000000 2.284103 11.993300
								CHANNELS 3 Xrotation Yrotation Zrotation
								JOINT newVegas:Hair_Front2
								{
									OFFSET 0.000000 2.284103 11.993300
									CHANNELS 3 Xrotation Yrotation Zrotation
									End Site
									{
										OFFSET 0.000000 12.208862 0.000000
									}
								}
							}
						}
						JOINT newVegas:Jowel
						{
							OFFSET 0.000000 -7.458206 6.864100
							CHANNELS 3 Xrotation Yrotation Zrotation
							End Site
							{
								OFFSET 0.000000 19.849884 0.000000
							}
						}
					}
				}
				JOINT newVegas:LeftShoulder
				{
					OFFSET 15.263000 10.923401 -0.547700
					CHANNELS 3 Xrotation Yrotation Zrotation
					JOINT newVegas:LeftArm
					{
						OFFSET 25.438599 -2.830597 -13.032500
						CHANNELS 3 Xrotation Yrotation Zrotation
						JOINT newVegas:LeftForeArm
						{
							OFFSET 29.960503 0.000000 0.000000
							CHANNELS 3 Xrotation Yrotation Zrotation
							JOINT newVegas:LeftHand
							{
								OFFSET 27.849251 0.000000 0.000000
								CHANNELS 3 Xrotation Yrotation Zrotation
								JOINT newVegas:LeftHandThumb1
								{
									OFFSET 4.487587 -3.305161 6.305391
									CHANNELS 3 Xrotation Yrotation Zrotation
									JOINT newVegas:LeftHandThumb2
									{
										OFFSET 5.480453 -3.164139 3.164143
										CHANNELS 3 Xrotation Yrotation Zrotation
										JOINT newVegas:LeftHandThumb3
										{
											OFFSET 5.159721 -2.978973 2.978967
											CHANNELS 3 Xrotation Yrotation Zrotation
											End Site
											{
												OFFSET 2.494507 5.926697 1.738678
											}
										}
									}
								}
								JOINT newVegas:LeftHandIndex1
								{
									OFFSET 18.578728 -0.527832 5.208049
									CHANNELS 3 Xrotation Yrotation Zrotation
									JOINT newVegas:LeftHandIndex2
									{
										OFFSET 3.192009 0.000000 0.000000
										CHANNELS 3 Xrotation Yrotation Zrotation
										JOINT newVegas:LeftHandIndex3
										{
											OFFSET 3.835129 0.000000 0.000000
											CHANNELS 3 Xrotation Yrotation Zrotation
											End Site
											{
												OFFSET -0.034599 3.816971 0.371180
											}
										}
									}
								}
								JOINT newVegas:LeftHandMiddle1
								{
									OFFSET 18.476105 0.000000 0.000000
									CHANNELS 3 Xrotation Yrotation Zrotation
									JOINT newVegas:LeftHandMiddle2
									{
										OFFSET 3.324875 0.000000 0.000000
										CHANNELS 3 Xrotation Yrotation Zrotation
										JOINT newVegas:LeftHandMiddle3
										{
											OFFSET 4.596550 0.000000 0.000000
											CHANNELS 3 Xrotation Yrotation Zrotation
											End Site
											{
												OFFSET 0.057701 4.578827 0.399218
											}
										}
									}
								}
								JOINT newVegas:LeftHandRing1
								{
									OFFSET 17.732719 0.121887 -4.201567
									CHANNELS 3 Xrotation Yrotation Zrotation
									JOINT newVegas:LeftHandRing2
									{
										OFFSET 2.733170 0.000000 0.000000
										CHANNELS 3 Xrotation Yrotation Zrotation
										JOINT newVegas:LeftHandRing3
										{
											OFFSET 3.178268 0.000000 0.000000
											CHANNELS 3 Xrotation Yrotation Zrotation
											End Site
											{
												OFFSET 0.119102 3.170624 0.185394
											}
										}
									}
								}
								JOINT newVegas:LeftHandPinky1
								{
									OFFSET 15.989624 -0.606689 -7.535461
									CHANNELS 3 Xrotation Yrotation Zrotation
									JOINT newVegas:LeftHandPinky2
									{
										OFFSET 2.538986 0.000000 0.000000
										CHANNELS 3 Xrotation Yrotation Zrotation
										JOINT newVegas:LeftHandPinky3
										{
											OFFSET 2.593102 0.000000 0.000000
											CHANNELS 3 Xrotation Yrotation Zrotation
											End Site
											{
												OFFSET -0.150902 2.584198 0.152708
											}
										}
									}
								}
							}
							JOINT newVegas:Left_Sleeve
							{
								OFFSET 0.267448 -0.649796 0.577675
								CHANNELS 3 Xrotation Yrotation Zrotation
								End Site
								{
									OFFSET 0.000000 15.991241 0.000000
								}
							}
							JOINT newVegas:Left_CapeC
							{
								OFFSET 15.715958 -8.608795 -6.935905
								CHANNELS 3 Xrotation Yrotation Zrotation
								JOINT newVegas:Left_CapeC1
								{
									OFFSET 0.000000 -8.688499 0.000000
									CHANNELS 3 Xrotation Yrotation Zrotation
									End Site
									{
										OFFSET 0.000000 8.688499 0.000000
									}
								}
							}
						}
						JOINT newVegas:Left_CapeB
						{
							OFFSET 26.118385 -8.608795 -7.079235
							CHANNELS 3 Xrotation Yrotation Zrotation
							JOINT newVegas:Left_CapeB1
							{
								OFFSET 0.000000 -8.688499 0.000000
								CHANNELS 3 Xrotation Yrotation Zrotation
								End Site
								{
									OFFSET 0.000000 8.688499 0.000000
								}
							}
						}
						JOINT newVegas:Left_CapeA
						{
							OFFSET 5.115639 -8.608795 -10.395809
							CHANNELS 3 Xrotation Yrotation Zrotation
							JOINT newVegas:Left_CapeA1
							{
								OFFSET 0.000000 -8.688499 0.000000
								CHANNELS 3 Xrotation Yrotation Zrotation
								End Site
								{
									OFFSET 0.000000 8.688499 0.000000
								}
							}
						}
					}
				}
				JOINT newVegas:RightShoulder
				{
					OFFSET -15.263000 10.923401 -0.547700
					CHANNELS 3 Xrotation Yrotation Zrotation
					JOINT newVegas:RightArm
					{
						OFFSET -25.438599 -2.830597 -13.032500
						CHANNELS 3 Xrotation Yrotation Zrotation
						JOINT newVegas:RightForeArm
						{
							OFFSET -29.960503 0.000000 0.000000
							CHANNELS 3 Xrotation Yrotation Zrotation
							JOINT newVegas:RightHand
							{
								OFFSET -27.849251 0.000000 0.000000
								CHANNELS 3 Xrotation Yrotation Zrotation
								JOINT newVegas:RightHandThumb1
								{
									OFFSET -4.487587 -3.305161 6.305391
									CHANNELS 3 Xrotation Yrotation Zrotation
									JOINT newVegas:RightHandThumb2
									{
										OFFSET -5.480453 -3.164139 3.164143
										CHANNELS 3 Xrotation Yrotation Zrotation
										JOINT newVegas:RightHandThumb3
										{
											OFFSET -5.159721 -2.978973 2.978967
											CHANNELS 3 Xrotation Yrotation Zrotation
											End Site
											{
												OFFSET -2.494507 5.926697 1.738678
											}
										}
									}
								}
								JOINT newVegas:RightHandIndex1
								{
									OFFSET -18.578728 -0.527832 5.208049
									CHANNELS 3 Xrotation Yrotation Zrotation
									JOINT newVegas:RightHandIndex2
									{
										OFFSET -3.192009 0.000000 0.000000
										CHANNELS 3 Xrotation Yrotation Zrotation
										JOINT newVegas:RightHandIndex3
										{
											OFFSET -3.835129 0.000000 0.000000
											CHANNELS 3 Xrotation Yrotation Zrotation
											End Site
											{
												OFFSET 0.034599 3.816971 0.371180
											}
										}
									}
								}
								JOINT newVegas:RightHandMiddle1
								{
									OFFSET -18.476105 0.000000 0.000000
									CHANNELS 3 Xrotation Yrotation Zrotation
									JOINT newVegas:RightHandMiddle2
									{
										OFFSET -3.324875 0.000000 0.000000
										CHANNELS 3 Xrotation Yrotation Zrotation
										JOINT newVegas:RightHandMiddle3
										{
											OFFSET -4.596550 0.000000 0.000000
											CHANNELS 3 Xrotation Yrotation Zrotation
											End Site
											{
												OFFSET -0.057701 4.578827 0.399218
											}
										}
									}
								}
								JOINT newVegas:RightHandRing1
								{
									OFFSET -17.732719 0.121887 -4.201567
									CHANNELS 3 Xrotation Yrotation Zrotation
									JOINT newVegas:RightHandRing2
									{
										OFFSET -2.733170 0.000000 0.000000
										CHANNELS 3 Xrotation Yrotation Zrotation
										JOINT newVegas:RightHandRing3
										{
											OFFSET -3.178268 0.000000 0.000000
											CHANNELS 3 Xrotation Yrotation Zrotation
											End Site
											{
												OFFSET -0.119102 3.170624 0.185394
											}
										}
									}
								}
								JOINT newVegas:RightHandPinky1
								{
									OFFSET -15.989624 -0.606689 -7.535461
									CHANNELS 3 Xrotation Yrotation Zrotation
									JOINT newVegas:RightHandPinky2
									{
										OFFSET -2.538986 0.000000 0.000000
										CHANNELS 3 Xrotation Yrotation Zrotation
										JOINT newVegas:RightHandPinky3
										{
											OFFSET -2.593102 0.000000 0.000000
											CHANNELS 3 Xrotation Yrotation Zrotation
											End Site
											{
												OFFSET 0.150902 2.584198 0.152708
											}
										}
									}
								}
							}
							JOINT newVegas:Right_CapeC
							{
								OFFSET -15.715958 -8.608795 -6.935905
								CHANNELS 3 Xrotation Yrotation Zrotation
								JOINT newVegas:Right_CapeC1
								{
									OFFSET 0.000000 -8.688499 0.000000
									CHANNELS 3 Xrotation Yrotation Zrotation
									End Site
									{
										OFFSET 0.000000 8.688499 0.000000
									}
								}
							}
							JOINT newVegas:Right_Sleeve
							{
								OFFSET -0.267448 -0.649994 0.577675
								CHANNELS 3 Xrotation Yrotation Zrotation
								End Site
								{
									OFFSET 0.000000 15.991302 0.000000
								}
							}
						}
						JOINT newVegas:Right_CapeA
						{
							OFFSET -5.115540 -8.608795 -10.395824
							CHANNELS 3 Xrotation Yrotation Zrotation
							JOINT newVegas:Right_CapeA1
							{
								OFFSET 0.000000 -8.688499 0.000000
								CHANNELS 3 Xrotation Yrotation Zrotation
								End Site
								{
									OFFSET 0.000000 8.688499 0.000000
								}
							}
						}
						JOINT newVegas:Right_CapeB
						{
							OFFSET -26.118187 -8.608795 -7.079266
							CHANNELS 3 Xrotation Yrotation Zrotation
							JOINT newVegas:Right_CapeB1
							{
								OFFSET 0.000000 -8.688499 0.000000
								CHANNELS 3 Xrotation Yrotation Zrotation
								End Site
								{
									OFFSET 0.000000 8.688499 0.000000
								}
							}
						}
					}
				}
				JOINT newVegas:Left_Collar
				{
					OFFSET 18.625099 8.655502 8.828100
					CHANNELS 3 Xrotation Yrotation Zrotation
					JOINT newVegas:Left_Collar1
					{
						OFFSET 14.783401 10.540405 -1.259500
						CHANNELS 3 Xrotation Yrotation Zrotation
						End Site
						{
							OFFSET 0.000000 18.199875 0.000000
						}
					}
				}
				JOINT newVegas:Collar_Back
				{
					OFFSET 0.000000 15.630707 -20.132601
					CHANNELS 3 Xrotation Yrotation Zrotation
					End Site
					{
						OFFSET 0.000000 22.523010 0.000000
					}
				}
				JOINT newVegas:Left_Peck
				{
					OFFSET 17.239599 -5.132599 25.482599
					CHANNELS 3 Xrotation Yrotation Zrotation
					End Site
					{
						OFFSET 0.000000 22.523010 0.000000
					}
				}
				JOINT newVegas:Right_Peck
				{
					OFFSET -17.239599 -5.132202 25.482599
					CHANNELS 3 Xrotation Yrotation Zrotation
					End Site
					{
						OFFSET 0.000000 22.523010 0.000000
					}
				}
				JOINT newVegas:Right_Collar
				{
					OFFSET -18.625099 8.655792 8.828100
					CHANNELS 3 Xrotation Yrotation Zrotation
					JOINT newVegas:Right_Collar1
					{
						OFFSET -14.783401 10.539993 -1.259500
						CHANNELS 3 Xrotation Yrotation Zrotation
						End Site
						{
							OFFSET 0.000000 18.199631 0.000000
						}
					}
				}
			}
		}
		JOINT newVegas:Belly
		{
			OFFSET 0.000000 -6.540398 9.014299
			CHANNELS 3 Xrotation Yrotation Zrotation
			End Site
			{
				OFFSET 0.000000 11.566666 0.000000
			}
		}
	}
	JOINT newVegas:ElvisFacialAnim_Joint
	{
		OFFSET 1.000000 -95.330101 -8.825800
		CHANNELS 3 Xrotation Yrotation Zrotation
		End Site
		{
			OFFSET 0.000000 35.315800 0.000000
		}
	}
}
MOTION
Frames: 4
Frame Time: 0.033333
6.201082 93.873863 6.654640 -6.573389 -7.307489 2.429380 -0.000000 0.000000 -0.000000 -11.102747 10.866269 2.501624 20.992305 9.040194 0.477965 -2.465738 3.419923 -3.236376 -0.000000 -0.000000 0.000000 -0.000000 0.000000 0.000001 7.521879 -18.336133 -12.233320 16.071363 -6.375815 -4.435264 -16.229974 -3.658674 14.847645 0.000000 0.000001 -0.000000 0.000002 -0.000002 0.000000 5.437202 4.688824 -2.581036 1.489154 0.724418 -0.858983 1.483559 0.737192 -0.686334 1.105125 1.926942 0.773891 1.105130 1.926942 0.773890 -0.000000 -0.000000 -0.000000 1.105197 1.926941 0.773888 1.105049 1.926948 0.773891 0.000000 0.000000 -0.000000 -0.000000 -0.000000 -0.000000 -0.614320 -16.203603 -20.318464 4.027166 -12.035197 -36.397603 0.000036 -75.638997 0.000046 -122.548333 -3.854415 10.769352 -12.800131 -17.470143 4.121640 1.000144 0.731306 -1.438314 0.000001 -0.000002 -0.000001 -3.532556 4.254356 -63.954579 3.402072 5.315520 -65.218956 0.000001 -0.000001 0.000000 2.434384 7.296018 -69.364082 3.297859 5.266345 -64.088621 -0.000000 -0.000001 0.000001 4.717024 8.075474 -77.582281 2.056306 4.456869 -49.517693 -0.000004 -0.000001 0.000002 6.410341 8.363737 -80.414590 1.722714 4.149874 -45.074382 0.000003 -0.000002 -0.000001 0.000000 0.000000 -0.000002 0.000000 0.000000 -0.000002 -0.000001 -0.000000 -0.000002 -0.000001 0.000001 0.000003 -0.000001 0.000000 0.000001 -0.000001 0.000001 0.000003 -0.000002 0.000002 0.000001 0.754309 18.436736 11.542199 11.491968 22.189147 37.844200 -0.001232 97.329683 0.001258 -35.401239 -20.221301 23.507259 20.470567 7.475596 18.843590 4.151714 -12.160914 -33.848003 0.000001 0.000001 -0.000000 -0.887062 1.427992 12.684524 1.917412 -3.767441 53.934336 -0.000001 -0.000001 -0.000001 0.770898 -5.199579 54.618823 5.563851 -4.568234 101.238573 0.000000 -0.000001 0.000005 6.934489 -8.544262 63.908769 2.909312 -4.317381 67.934735 0.000001 -0.000001 -0.000001 8.373414 -8.171787 73.989923 2.173659 -3.940941 57.745370 0.000001 0.000002 -0.000000 -0.000002 -0.000001 -0.000002 -0.000002 -0.000000 0.000001 -0.000002 -0.000001 0.000000 -0.000001 0.000000 -0.000001 -0.000001 0.000001 -0.000002 -0.000001 0.000000 -0.000001 -0.000001 0.000001 -0.000000 -0.000000 0.000000 0.000000 -0.000000 0.000000 0.000000 -0.000000 0.000000 0.000000 -0.000000 0.000000 0.000000 -0.000000 0.000000 0.000000 -0.000000 0.000000 0.000000 -0.000000 0.000000 0.000000 0.000000 0.000000 -0.000000 -0.000000 0.000000 -0.000000 
6.204740 93.876793 6.525098 -6.612286 -7.172502 2.435717 0.000000 -0.000000 -0.000000 -11.187642 10.859069 2.516256 20.912784 8.957750 0.489549 -2.276228 3.383086 -3.200404 0.000000 0.000002 0.000000 -0.000000 -0.000002 0.000000 7.432233 -18.316301 -12.204054 16.257682 -6.523005 -4.435150 -16.267757 -3.662553 14.825429 0.000000 -0.000003 -0.000000 -0.000000 0.000000 0.000001 5.455225 4.718978 -2.572626 1.489154 0.726239 -0.837347 1.483559 0.737193 -0.685283 1.113599 1.939662 0.775538 1.113604 1.939662 0.775539 0.000000 0.000000 -0.000000 1.113671 1.939663 0.775537 1.113595 1.939667 0.775538 0.000000 -0.000000 -0.000000 0.000000 0.000000 -0.000000 -0.611624 -16.183833 -20.311547 4.114829 -11.994346 -36.459785 0.000018 -75.570197 0.000045 -122.687956 -3.862516 10.627291 -12.800130 -17.470143 4.121641 1.000148 0.731303 -1.438309 0.000000 0.000001 -0.000004 -3.532557 4.254355 -63.954579 3.402073 5.315518 -65.218949 0.000003 0.000000 0.000001 2.434384 7.296020 -69.364082 3.297860 5.266341 -64.088628 -0.000000 -0.000001 0.000001 4.717027 8.075477 -77.582281 2.056302 4.456873 -49.517693 -0.000002 -0.000001 0.000002 6.410343 8.363737 -80.414583 1.722712 4.149871 -45.074392 0.000000 -0.000003 -0.000000 -0.000001 0.000000 0.000002 -0.000001 0.000000 0.000002 -0.000001 0.000000 0.000002 -0.000000 0.000003 0.000002 0.000000 0.000003 0.000000 -0.000000 0.000003 0.000002 -0.000001 0.000003 0.000001 0.754309 18.436735 11.542198 11.474022 22.256089 37.875574 0.000011 97.306768 -0.000013 -35.306095 -20.414051 23.564086 20.470569 7.475593 18.843594 4.151720 -12.160918 -33.848003 0.000001 0.000000 0.000001 -0.887063 1.427992 12.684523 1.917413 -3.767442 53.934333 -0.000001 -0.000001 0.000004 0.770897 -5.199581 54.618823 5.563855 -4.568234 101.238580 -0.000000 -0.000002 0.000004 6.934487 -8.544266 63.908762 2.909319 -4.317382 67.934735 -0.000000 -0.000003 -0.000001 8.373416 -8.171792 73.989923 2.173660 -3.940938 57.745370 0.000001 0.000003 -0.000000 -0.000001 -0.000003 -0.000002 -0.000001 -0.000002 0.000001 -0.000001 -0.000004 -0.000002 -0.000002 0.000001 -0.000001 -0.000002 0.000002 -0.000000 -0.000002 0.000001 -0.000001 -0.000002 0.000002 0.000002 0.000000 0.000000 -0.000000 0.000000 0.000000 -0.000000 0.000000 0.000000 -0.000000 0.000000 0.000000 -0.000000 0.000000 0.000000 -0.000000 0.000000 0.000000 -0.000000 0.000000 0.000000 -0.000000 -0.000000 -0.000000 -0.000000 0.000000 -0.000000 -0.000000 
6.207843 93.879478 6.396775 -6.650618 -7.031316 2.441785 -0.000000 -0.000000 -0.000000 -11.278313 10.857482 2.520595 20.837755 8.868749 0.493841 -2.090525 3.334369 -3.143748 -0.000000 0.000000 0.000000 -0.000000 -0.000001 0.000000 7.354871 -18.293702 -12.185681 16.396800 -6.612995 -4.434487 -16.279162 -3.666668 14.837350 0.000000 0.000002 0.000000 -0.000001 0.000005 -0.000002 5.472390 4.743886 -2.564010 1.489154 0.727626 -0.816590 1.483559 0.737192 -0.684240 1.121389 1.950169 0.776490 1.121395 1.950170 0.776491 0.000000 0.000000 -0.000000 1.121388 1.950174 0.776489 1.121460 1.950160 0.776489 -0.000000 0.000000 0.000000 0.000000 0.000000 -0.000000 -0.603770 -16.156338 -20.265497 4.210393 -11.989820 -36.541181 0.000034 -75.488849 0.000039 -122.843247 -3.888382 10.469087 -12.800131 -17.470142 4.121641 1.000147 0.731306 -1.438309 0.000000 -0.000000 -0.000001 -3.532557 4.254355 -63.954579 3.402067 5.315520 -65.218963 -0.000000 -0.000000 -0.000002 2.434384 7.296022 -69.364075 3.297861 5.266344 -64.088621 -0.000002 -0.000000 0.000000 4.717026 8.075480 -77.582288 2.056303 4.456873 -49.517693 -0.000002 0.000001 -0.000000 6.410343 8.363737 -80.414583 1.722708 4.149873 -45.074392 -0.000002 0.000000 0.000001 0.000002 -0.000001 -0.000001 0.000002 -0.000001 -0.000001 0.000001 -0.000001 -0.000001 0.000001 0.000003 -0.000000 0.000001 0.000002 -0.000003 0.000001 0.000003 -0.000000 0.000000 0.000003 -0.000001 0.754308 18.436735 11.542200 11.456673 22.320768 37.905945 0.000890 97.284577 -0.000842 -35.213785 -20.599248 23.621449 20.470565 7.475592 18.843594 4.151716 -12.160918 -33.847996 0.000000 0.000000 -0.000000 -0.887061 1.427990 12.684525 1.917411 -3.767438 53.934336 -0.000002 -0.000002 0.000004 0.770899 -5.199583 54.618823 5.563849 -4.568235 101.238580 0.000001 -0.000000 0.000002 6.934490 -8.544266 63.908769 2.909320 -4.317384 67.934735 -0.000001 0.000004 -0.000001 8.373417 -8.171794 73.989923 2.173658 -3.940940 57.745370 -0.000000 0.000003 -0.000001 -0.000002 0.000001 0.000002 -0.000000 0.000002 0.000004 -0.000002 0.000001 0.000000 -0.000001 0.000000 0.000001 -0.000001 0.000000 0.000002 -0.000001 0.000000 0.000001 -0.000001 0.000000 0.000003 0.000000 0.000000 0.000000 0.000000 0.000000 0.000000 0.000000 0.000000 0.000000 0.000000 0.000000 0.000000 0.000000 0.000000 0.000000 0.000000 0.000000 0.000000 0.000000 0.000000 0.000000 0.000000 -0.000000 0.000000 -0.000000 -0.000000 -0.000000 
6.213465 93.882797 6.271309 -6.688300 -6.885190 2.448155 0.000000 0.000000 -0.000000 -11.368269 10.848488 2.512162 20.754532 8.781448 0.504485 -1.899921 3.280424 -3.083111 0.000000 0.000000 -0.000000 -0.000000 0.000000 -0.000000 7.271071 -18.287381 -12.145399 16.585438 -6.780700 -4.434008 -16.320553 -3.680587 14.796391 0.000000 -0.000003 -0.000000 0.000002 0.000002 -0.000001 5.488631 4.763302 -2.555745 1.489154 0.728687 -0.796866 1.483560 0.737192 -0.683216 1.128554 1.958606 0.777013 1.128553 1.958605 0.777013 0.000001 0.000000 -0.000000 1.128553 1.958605 0.777012 1.128553 1.958605 0.777013 0.000000 -0.000000 -0.000000 0.000001 0.000000 0.000000 -0.596255 -16.145802 -20.263114 4.293177 -11.940921 -36.585533 0.000136 -75.440047 0.000121 -122.974619 -3.904022 10.343481 -12.800131 -17.470143 4.121645 1.000147 0.731303 -1.438314 0.000002 0.000000 0.000001 -3.532558 4.254357 -63.954572 3.402071 5.315520 -65.218956 0.000002 -0.000000 -0.000001 2.434383 7.296025 -69.364082 3.297862 5.266344 -64.088628 0.000000 -0.000001 0.000002 4.717023 8.075477 -77.582281 2.056302 4.456872 -49.517693 -0.000001 -0.000001 0.000001 6.410340 8.363743 -80.414583 1.722712 4.149866 -45.074392 -0.000001 -0.000003 -0.000002 -0.000000 -0.000000 -0.000002 -0.000000 -0.000000 -0.000002 -0.000001 -0.000001 -0.000002 -0.000000 -0.000001 -0.000002 0.000000 -0.000000 -0.000003 -0.000000 -0.000001 -0.000002 -0.000001 0.000000 -0.000002 0.754309 18.436736 11.542199 11.440087 22.382636 37.935017 0.000131 97.263390 -0.000115 -35.125819 -20.774381 23.679188 20.470565 7.475590 18.843589 4.151716 -12.160917 -33.848000 -0.000000 0.000002 -0.000002 -0.887064 1.427988 12.684522 1.917410 -3.767443 53.934336 -0.000001 0.000000 -0.000004 0.770898 -5.199582 54.618820 5.563852 -4.568232 101.238580 0.000003 0.000000 0.000001 6.934490 -8.544266 63.908762 2.909319 -4.317380 67.934735 0.000005 -0.000001 -0.000002 8.373411 -8.171794 73.989923 2.173657 -3.940942 57.745370 0.000001 0.000003 0.000001 0.000001 0.000001 0.000001 0.000001 0.000002 0.000003 0.000001 0.000001 0.000001 -0.000002 0.000000 -0.000000 -0.000002 0.000000 0.000001 -0.000002 0.000000 -0.000000 -0.000002 0.000000 0.000003 -0.000000 0.000000 -0.000000 -0.000000 0.000000 -0.000000 -0.000000 0.000000 -0.000000 -0.000000 0.000000 -0.000000 -0.000000 0.000000 -0.000000 -0.000000 0.000000 -0.000000 -0.000000 0.000000 -0.000000 -0.000000 -0.000000 -0.000000 0.000000 0.000000 -0.000000 
